<?xml version="1.0" encoding="UTF-8"?>
<svg width="512px" height="512px" viewBox="0 0 512 512" version="1.1" xmlns="http://www.w3.org/2000/svg" xmlns:xlink="http://www.w3.org/1999/xlink">
    <title>Pwny@1x</title>
    <defs>
        <linearGradient x1="50%" y1="0%" x2="50%" y2="100%" id="linearGradient-1">
            <stop stop-color="#FFFFFF" stop-opacity="0" offset="0%"></stop>
            <stop stop-color="#000000" stop-opacity="0.117242133" offset="100%"></stop>
        </linearGradient>
        <path d="M125.630375,0 L386.369625,7.25467311e-15 C430.054043,-4.215174e-15 445.895069,4.54845495 461.865439,13.0895025 C477.83581,21.63055 490.36945,34.1641902 498.910498,50.1345605 C507.451545,66.1049309 512,81.9459565 512,125.630375 L512,386.369625 C512,430.054043 507.451545,445.895069 498.910498,461.865439 C490.36945,477.83581 477.83581,490.36945 461.865439,498.910498 C445.895069,507.451545 430.054043,512 386.369625,512 L125.630375,512 C81.9459565,512 66.1049309,507.451545 50.1345605,498.910498 C34.1641902,490.36945 21.63055,477.83581 13.0895025,461.865439 C4.54845495,445.895069 0,430.054043 0,386.369625 L0,125.630375 C0,81.9459565 4.54845495,66.1049309 13.0895025,50.1345605 C21.63055,34.1641902 34.1641902,21.63055 50.1345605,13.0895025 C66.1049309,4.54845495 81.9459565,0 125.630375,0 Z" id="path-2"></path>
    </defs>
    <g id="Pwny" stroke="none" stroke-width="1" fill="none" fill-rule="evenodd">
        <g id="Rectangle">
            <use fill="#DA561E" xlink:href="#path-2"></use>
            <use fill="url(#linearGradient-1)" xlink:href="#path-2"></use>
        </g>
        <g id="Group" transform="translate(29, 29)">
            <polygon id="Path" points="0 0 454 0 454 454 0 454"></polygon>
            <path d="M129.186429,214.568095 L116.496317,341.726313 L116.496317,341.726313 C115.769269,348.9529 118.130547,356.150042 122.996043,361.537385 C127.86154,366.924728 134.776823,370 142.031263,370 L144.79282,370 C160.260798,370 174.171204,360.573796 179.917558,346.195562 L198.718844,299.116938 C204.465198,284.738704 218.375605,275.311462 233.843582,275.3125 L258.281471,275.3125 C273.749448,275.311462 287.659855,284.738704 293.406209,299.116938 L312.207495,346.195562 C317.953849,360.573796 331.864255,370 347.332233,370 L350.09379,370 C357.373034,370 364.31577,366.930746 369.223771,361.548515 C374.131772,356.166284 376.552395,348.965451 375.893543,341.707375 L362.028382,188.975226 C360.625453,173.521216 347.668799,161.6875 332.15124,161.6875 L208.232976,161.6875 L208.232976,161.6875 C208.232976,104.875 151.488651,67 94.7443254,67 L47.6497147,161.302384 C41.8857606,172.844142 44.1461397,186.778524 53.2630337,195.906371 L58.4288517,201.078396 C68.5439142,211.205611 84.4045153,212.776489 96.3096264,204.830212 L104.201713,199.5625 C111.605153,194.620943 121.61275,196.616694 126.554307,204.020135 C128.626818,207.12517 129.557149,210.85338 129.186429,214.568095 Z" id="Path" fill="#FFFFFF"></path>
            <path d="M391,268 L391,230 C391,198.519769 365.480231,173 334,173" id="Path" stroke="#FFFFFF" stroke-width="22" stroke-linecap="round" stroke-linejoin="round"></path>
        </g>
    </g>
</svg>